<svg xmlns="http://www.w3.org/2000/svg" version="1.1" xmlns:xlink="http://www.w3.org/1999/xlink" xmlns:svgjs="http://svgjs.dev/svgjs" viewBox="0 0 27.844948782560227 6.907888323339767"><g transform="matrix(1,0,0,1,12.358615607204463,2.082207419211729)"><rect width="27.844948782560227" height="27.844948782560227" x="-12.358615607204463" y="-12.550737648821958" fill="#000000"></rect><g><path d=" M 0.4706836656315625 0.9956769849898435 L 0.6034405969635416 0.43045429250065936 L 0.6999910924777083 0.87297739694059 M 1.0761357312516493 1.2893514088454336 C 1.0540095760296526 1.208892662583628 0.8065989312746007 0.22126155221996502 0.8065989312746007 0.15890602386706565 C 0.8065989312746007 0.12068811939270807 0.8588971163447743 0.07844727760526027 0.8588971163447743 0.054309653726718476 C 0.8588971163447743 0.03218349850472202 0.8428053670924132 0.01810321790890601 0.8146448059007813 0.01810321790890601 L 0.39827079399593746 0.01810321790890601 C 0.37011023280430555 0.01810321790890601 0.35401848355194443 0.03218349850472202 0.35401848355194443 0.054309653726718476 C 0.35401848355194443 0.07844727760526027 0.406316668622118 0.12068811939270807 0.406316668622118 0.15890602386706565 C 0.406316668622118 0.22126155221996502 0.13275693133197916 1.2953858148150692 0.11666518207961805 1.3577413431679684 C 0.0985619641707118 1.4281427461470484 0.020114686565451387 1.468372119277951 0.020114686565451387 1.5005556177826733 C 0.020114686565451387 1.5226817730046698 0.0362064358178125 1.5367620536004858 0.06436699700944444 1.5367620536004858 L 0.42240841787447914 1.5367620536004858 C 0.4545919163792014 1.5367620536004858 0.46867219697501733 1.5206703043481247 0.46867219697501733 1.5005556177826733 C 0.46867219697501733 1.468372119277951 0.39625932533939234 1.4422230267428642 0.39625932533939234 1.363775749137604 L 0.39625932533939234 1.309466095410885 L 0.7603351521740624 1.1123421670694615 C 0.7603351521740624 1.1123421670694615 0.826713617840052 1.3838904357030553 0.826713617840052 1.3979707162988713 C 0.826713617840052 1.4462459640559546 0.7744154327698785 1.468372119277951 0.7744154327698785 1.5005556177826733 C 0.7744154327698785 1.5206703043481247 0.7884957133656944 1.5367620536004858 0.8206792118704166 1.5367620536004858 L 1.1505600715438193 1.5367620536004858 C 1.1787206327354514 1.5367620536004858 1.1948123819878125 1.5226817730046698 1.1948123819878125 1.5005556177826733 C 1.1948123819878125 1.468372119277951 1.1083192297563715 1.4120509968946873 1.0761357312516493 1.2893514088454336 M 1.6353318750706374 1.5367620536004858 C 1.6675153735753594 1.5367620536004858 1.6916529974539012 1.5166473670350344 1.6916529974539012 1.4864753371868573 C 1.6916529974539012 1.440211558086319 1.6051598452224602 1.3919363103292357 1.6051598452224602 1.349695468541788 L 1.6051598452224602 0.6879222805384372 L 2.0114765138445785 1.480440931217222 C 2.0295797317534845 1.5166473670350344 2.0436600123493003 1.5367620536004858 2.097969666076019 1.5367620536004858 L 2.224692191438363 1.5367620536004858 C 2.268944501882356 1.5367620536004858 2.297105063073988 1.5086014924088538 2.297105063073988 1.466360650621406 L 2.297105063073988 0.22126155221996502 C 2.297105063073988 0.14080280595815942 2.3835982153054287 0.09453902685762139 2.3835982153054287 0.052298185070173364 C 2.3835982153054287 0.03419496716126713 2.367506466053068 0.01810321790890601 2.339345904861436 0.01810321790890601 L 1.9953847645922171 0.01810321790890601 C 1.9672242034005851 0.01810321790890601 1.9511324541482242 0.03419496716126713 1.9511324541482242 0.052298185070173364 C 1.9511324541482242 0.09453902685762139 2.037625606379665 0.14080280595815942 2.037625606379665 0.22126155221996502 L 2.037625606379665 0.9333214566369442 L 1.633320406414092 0.08045874626180538 C 1.6212515944748214 0.052298185070173364 1.6071713138790054 0.01810321790890601 1.544815785526106 0.01810321790890601 L 1.3034395467406894 0.01810321790890601 C 1.2752789855490574 0.01810321790890601 1.2591872362966963 0.03419496716126713 1.2591872362966963 0.052298185070173364 C 1.2591872362966963 0.09453902685762139 1.3456803885281374 0.14080280595815942 1.3456803885281374 0.22126155221996502 L 1.3456803885281374 1.3336037192894268 C 1.3456803885281374 1.4140624655512324 1.2591872362966963 1.4603262446517706 1.2591872362966963 1.5025670864392184 C 1.2591872362966963 1.5206703043481247 1.2752789855490574 1.5367620536004858 1.3034395467406894 1.5367620536004858 M 2.995082722570291 0.49683275816664896 C 2.995082722570291 0.5189589133886456 3.013185940479197 0.5350506626410068 3.0292776897315585 0.5350506626410068 C 3.0534153136101 0.5350506626410068 3.210309868820621 0.42844282384411425 3.242493367325343 0.4043051999655727 C 3.258585116577704 0.3922363880263018 3.26461952254734 0.3821790447435762 3.26461952254734 0.3520070148953991 L 3.26461952254734 0.17902071043251722 C 3.26461952254734 0.0965504955141665 3.184160776285534 0.0160917492523609 3.065484125549371 0.0160917492523609 L 2.6993968300581557 0.0160917492523609 C 2.5907775226047183 0.0160917492523609 2.5083073076863673 0.06838993432253448 2.5083073076863673 0.16896336714979143 L 2.5083073076863673 1.3838904357030553 C 2.5083073076863673 1.4844638685303122 2.5907775226047183 1.5367620536004858 2.6993968300581557 1.5367620536004858 L 3.095656155397548 1.5367620536004858 C 3.2183557434468018 1.5367620536004858 3.294791552395517 1.45228037002559 3.294791552395517 1.3758445610768746 L 3.294791552395517 0.7140713730735241 C 3.294791552395517 0.6879222805384372 3.2807112717997007 0.6718305312860762 3.256573647921159 0.6718305312860762 C 3.2183557434468018 0.6718305312860762 3.0011171285399265 0.7663695581436977 2.9528418807828434 0.7905071820222394 C 2.9287042569043016 0.8025759939615101 2.9146239763084854 0.8146448059007809 2.9146239763084854 0.8428053670924129 L 2.9146239763084854 1.0218260775249304 C 2.9146239763084854 1.047975170060017 2.9307157255608467 1.0640669193123782 2.948818943469753 1.0640669193123782 C 2.9769795046613847 1.0640669193123782 3.0252547524184683 1.0399292954338364 3.0252547524184683 1.0399292954338364 L 3.0252547524184683 1.3155005013805205 L 2.803993200198503 1.3155005013805205 C 2.789912919602687 1.3155005013805205 2.777844107663416 1.3034316894412497 2.777844107663416 1.2893514088454336 L 2.777844107663416 0.26551386266395816 C 2.777844107663416 0.25143358206814215 2.789912919602687 0.23936477012887125 2.803993200198503 0.23936477012887125 L 2.995082722570291 0.23936477012887125 M 4.167785646097416 1.5367620536004858 C 4.2160608938544994 1.5367620536004858 4.236175580419951 1.5166473670350344 4.236175580419951 1.468372119277951 L 4.236175580419951 1.0439522327469268 C 4.236175580419951 1.0218260775249304 4.218072362511045 1.005734328272569 4.201980613258684 1.005734328272569 C 4.177842989380141 1.005734328272569 4.020948434169621 1.1123421670694615 3.9887649356648986 1.136479790948003 C 3.9726731864125373 1.148548602887274 3.966638780442902 1.1586059461699998 3.966638780442902 1.188777976018177 L 3.966638780442902 1.3155005013805205 L 3.801698350606201 1.3155005013805205 C 3.7876180700103848 1.3155005013805205 3.775549258071114 1.3054431580977948 3.775549258071114 1.291362877501979 L 3.775549258071114 1.0660783879689233 L 4.006868153573805 0.9192411760411282 C 4.037040183421982 0.901137958132222 4.045086058048162 0.8850462088798609 4.045086058048162 0.8508512417185935 L 4.045086058048162 0.6657961253164407 C 4.045086058048162 0.6436699700944442 4.0310057774523465 0.6235552835289928 4.006868153573805 0.6235552835289928 C 3.9907764043214438 0.6235552835289928 3.9726731864125373 0.6316011581551734 3.9545699685036313 0.6436699700944442 L 3.775549258071114 0.756312214860972 L 3.775549258071114 0.26350239400741304 C 3.775549258071114 0.25143358206814215 3.7876180700103848 0.23936477012887125 3.801698350606201 0.23936477012887125 L 3.966638780442902 0.23936477012887125 L 3.966638780442902 0.4606263223488365 C 3.966638780442902 0.48275247757083317 3.9847419983518084 0.4988442268231943 4.00083374760417 0.4988442268231943 C 4.024971371482711 0.4988442268231943 4.181865926693232 0.3922363880263018 4.214049425197954 0.3680987641477602 C 4.230141174450315 0.3560299522084893 4.236175580419951 0.34597260892576354 4.236175580419951 0.31580057907758663 L 4.236175580419951 0.08649315223144072 C 4.236175580419951 0.038217904474357356 4.2160608938544994 0.01810321790890601 4.167785646097416 0.01810321790890601 L 3.4637716163066177 0.01810321790890601 C 3.4356110551149857 0.01810321790890601 3.4195193058626243 0.03419496716126713 3.4195193058626243 0.052298185070173364 C 3.4195193058626243 0.09453902685762139 3.5060124580940655 0.14080280595815942 3.5060124580940655 0.22126155221996502 L 3.5060124580940655 1.3336037192894268 C 3.5060124580940655 1.4140624655512324 3.4195193058626243 1.4603262446517706 3.4195193058626243 1.5025670864392184 C 3.4195193058626243 1.5206703043481247 3.4356110551149857 1.5367620536004858 3.4637716163066177 1.5367620536004858 M 4.7169234644712486 1.3155005013805205 L 4.7169234644712486 0.22126155221996502 C 4.7169234644712486 0.14080280595815942 4.803416616702689 0.09453902685762139 4.803416616702689 0.052298185070173364 C 4.803416616702689 0.03419496716126713 4.787324867450328 0.01810321790890601 4.759164306258697 0.01810321790890601 L 4.405145822706752 0.01810321790890601 C 4.37698526151512 0.01810321790890601 4.360893512262759 0.03419496716126713 4.360893512262759 0.052298185070173364 C 4.360893512262759 0.09453902685762139 4.4473866644942 0.14080280595815942 4.4473866644942 0.22126155221996502 L 4.4473866644942 1.3336037192894268 C 4.4473866644942 1.4140624655512324 4.360893512262759 1.4603262446517706 4.360893512262759 1.5025670864392184 C 4.360893512262759 1.5206703043481247 4.37698526151512 1.5367620536004858 4.405145822706752 1.5367620536004858 L 5.040769918175016 1.5367620536004858 C 5.089045165932099 1.5367620536004858 5.109159852497551 1.5166473670350344 5.109159852497551 1.468372119277951 L 5.109159852497551 1.0439522327469268 C 5.109159852497551 1.0218260775249304 5.091056634588644 1.005734328272569 5.074964885336283 1.005734328272569 C 5.050827261457742 1.005734328272569 4.89393270624722 1.1123421670694615 4.861749207742498 1.136479790948003 C 4.8456574584901375 1.148548602887274 4.839623052520502 1.1586059461699998 4.839623052520502 1.188777976018177 L 4.839623052520502 1.3155005013805205 M 5.901689306963064 1.5367620536004858 L 6.257719259171553 1.5367620536004858 C 6.3542697546857205 1.5367620536004858 6.448808781543342 1.454291838682135 6.448808781543342 1.3718216237637844 L 6.448808781543342 0.9574590805154858 C 6.448808781543342 0.8709659282840448 6.41260234572553 0.830736555153142 6.34622388005954 0.786484244709149 L 6.010308614416502 0.5551653492064581 C 5.978125115911779 0.5310277253279163 5.972090709942144 0.5149359760755552 5.972090709942144 0.4867754148839234 L 5.972090709942144 0.23936477012887125 L 6.159157295000842 0.23936477012887125 L 6.159157295000842 0.37413317011739555 C 6.159157295000842 0.42643135518756914 6.175249044253203 0.44453457309647537 6.19335226216211 0.45660338503574627 C 6.227547229323377 0.4787295402577427 6.3361665367768145 0.5551653492064581 6.384441784533897 0.5551653492064581 C 6.404556471099349 0.5551653492064581 6.428694094977891 0.5310277253279163 6.428694094977891 0.49482128951010385 L 6.428694094977891 0.18304364774560744 C 6.428694094977891 0.10057343282725673 6.35024681737263 0.01810321790890601 6.229558697979922 0.01810321790890601 L 5.893643432336884 0.01810321790890601 C 5.787035593539991 0.01810321790890601 5.702553909965095 0.07241287163562471 5.702553909965095 0.17298630446288166 L 5.702553909965095 0.5732685671153643 C 5.702553909965095 0.6617731880033504 5.752840626378724 0.7040140297907983 5.811173217418533 0.7442434029217011 L 6.143065545748481 0.9735508297678469 C 6.1692146382835675 0.9916540476767531 6.179271981566293 1.0097572655856595 6.179271981566293 1.0359063581207462 L 6.179271981566293 1.3155005013805205 L 5.972090709942144 1.3155005013805205 L 5.972090709942144 1.1264224476652775 C 5.972090709942144 1.0741242625951037 5.955998960689783 1.0560210446861977 5.937895742780877 1.0439522327469268 C 5.905712244276154 1.0198146088683853 5.795081468166172 0.945390268576215 5.754852095035269 0.945390268576215 C 5.7266915338436375 0.945390268576215 5.702553909965095 0.9675164237982116 5.702553909965095 1.003722859616024 L 5.702553909965095 1.3718216237637844 C 5.702553909965095 1.454291838682135 5.783012656226901 1.5367620536004858 5.901689306963064 1.5367620536004858 M 6.92552194233239 0.20114686565451367 C 6.92552194233239 0.14482574327124986 6.989888939341834 0.09453902685762139 6.989888939341834 0.052298185070173364 C 6.989888939341834 0.03419496716126713 6.973797190089473 0.01810321790890601 6.945636628897842 0.01810321790890601 L 6.56546905281081 0.01810321790890601 C 6.537308491619179 0.01810321790890601 6.521216742366817 0.03419496716126713 6.521216742366817 0.052298185070173364 C 6.521216742366817 0.09453902685762139 6.593629614002442 0.1508601492408852 6.629836049820255 0.22528448953305524 C 6.742478294586783 0.45660338503574627 6.917476067706209 0.8287250864965969 6.931556348302025 0.87297739694059 L 6.931556348302025 1.3336037192894268 C 6.931556348302025 1.4140624655512324 6.845063196070584 1.4603262446517706 6.845063196070584 1.5025670864392184 C 6.845063196070584 1.5206703043481247 6.861154945322945 1.5367620536004858 6.889315506514578 1.5367620536004858 L 7.243333990066522 1.5367620536004858 C 7.2714945512581535 1.5367620536004858 7.287586300510515 1.5206703043481247 7.287586300510515 1.5025670864392184 C 7.287586300510515 1.4603262446517706 7.201093148279074 1.4140624655512324 7.201093148279074 1.3336037192894268 L 7.201093148279074 0.87297739694059 C 7.21517342887489 0.8287250864965969 7.390171201994317 0.45660338503574627 7.502813446760845 0.22528448953305524 C 7.539019882578657 0.1508601492408852 7.611432754214283 0.09453902685762139 7.611432754214283 0.052298185070173364 C 7.611432754214283 0.03419496716126713 7.595341004961921 0.01810321790890601 7.567180443770289 0.01810321790890601 L 7.187012867683258 0.01810321790890601 C 7.158852306491626 0.01810321790890601 7.142760557239265 0.03419496716126713 7.142760557239265 0.052298185070173364 C 7.142760557239265 0.09453902685762139 7.207127554248709 0.14482574327124986 7.207127554248709 0.20114686565451367 L 7.066324748290549 0.5310277253279163 M 7.915188093250917 1.5367620536004858 L 8.271218045459406 1.5367620536004858 C 8.367768540973573 1.5367620536004858 8.462307567831195 1.454291838682135 8.462307567831195 1.3718216237637844 L 8.462307567831195 0.9574590805154858 C 8.462307567831195 0.8709659282840448 8.426101132013383 0.830736555153142 8.359722666347393 0.786484244709149 L 8.023807400704355 0.5551653492064581 C 7.991623902199632 0.5310277253279163 7.985589496229997 0.5149359760755552 7.985589496229997 0.4867754148839234 L 7.985589496229997 0.23936477012887125 L 8.172656081288695 0.23936477012887125 L 8.172656081288695 0.37413317011739555 C 8.172656081288695 0.42643135518756914 8.188747830541056 0.44453457309647537 8.206851048449963 0.45660338503574627 C 8.241046015611229 0.4787295402577427 8.349665323064666 0.5551653492064581 8.397940570821751 0.5551653492064581 C 8.418055257387202 0.5551653492064581 8.442192881265743 0.5310277253279163 8.442192881265743 0.49482128951010385 L 8.442192881265743 0.18304364774560744 C 8.442192881265743 0.10057343282725673 8.363745603660483 0.01810321790890601 8.243057484267775 0.01810321790890601 L 7.907142218624736 0.01810321790890601 C 7.800534379827844 0.01810321790890601 7.716052696252948 0.07241287163562471 7.716052696252948 0.17298630446288166 L 7.716052696252948 0.5732685671153643 C 7.716052696252948 0.6617731880033504 7.766339412666577 0.7040140297907983 7.824672003706386 0.7442434029217011 L 8.156564332036334 0.9735508297678469 C 8.182713424571421 0.9916540476767531 8.192770767854146 1.0097572655856595 8.192770767854146 1.0359063581207462 L 8.192770767854146 1.3155005013805205 L 7.985589496229997 1.3155005013805205 L 7.985589496229997 1.1264224476652775 C 7.985589496229997 1.0741242625951037 7.969497746977636 1.0560210446861977 7.95139452906873 1.0439522327469268 C 7.919211030564007 1.0198146088683853 7.808580254454025 0.945390268576215 7.768350881323122 0.945390268576215 C 7.74019032013149 0.945390268576215 7.716052696252948 0.9675164237982116 7.716052696252948 1.003722859616024 L 7.716052696252948 1.3718216237637844 C 7.716052696252948 1.454291838682135 7.7965114425147535 1.5367620536004858 7.915188093250917 1.5367620536004858 M 9.091835381096736 0.23936477012887125 C 9.216546437802535 0.23936477012887125 9.216546437802535 0.25143358206814215 9.256775810933437 0.29568589251213506 C 9.290970778094705 0.335915265643038 9.307062527347066 0.3520070148953991 9.333211619882153 0.3520070148953991 C 9.365395118386875 0.3520070148953991 9.387521273608872 0.32988085967340264 9.387521273608872 0.2976973611686804 L 9.387521273608872 0.052298185070173364 C 9.387521273608872 0.020114686565451123 9.365395118386875 -2.220446049250313e-16 9.333211619882153 -2.220446049250313e-16 C 9.321142807942882 -2.220446049250313e-16 9.30102812137743 0.0020114686565448903 9.266833154216163 0.006034405969635115 C 9.22660378108526 0.012068811939270674 9.174305596015087 0.01810321790890601 9.142122097510365 0.01810321790890601 L 8.772011864706059 0.01810321790890601 C 8.629197590091353 0.01810321790890601 8.603048497556268 -2.220446049250313e-16 8.570864999051544 -2.220446049250313e-16 C 8.538681500546822 -2.220446049250313e-16 8.526612688607552 0.014080280595815786 8.526612688607552 0.04626377910053803 L 8.526612688607552 0.30976617310795107 C 8.526612688607552 0.33390379698649286 8.540692969203368 0.3520070148953991 8.562819124425364 0.3520070148953991 C 8.590979685616997 0.3520070148953991 8.609082903525902 0.33189232832994775 8.653335213969896 0.29367442385558995 C 8.697587524413889 0.25545651938123237 8.70965633635316 0.23936477012887125 8.822298581119687 0.23936477012887125 L 8.822298581119687 1.3336037192894268 C 8.822298581119687 1.4140624655512324 8.735805428888247 1.4603262446517706 8.735805428888247 1.5025670864392184 C 8.735805428888247 1.5206703043481247 8.751897178140608 1.5367620536004858 8.78005773933224 1.5367620536004858 L 9.134076222884184 1.5367620536004858 C 9.162236784075816 1.5367620536004858 9.178328533328177 1.5206703043481247 9.178328533328177 1.5025670864392184 C 9.178328533328177 1.4603262446517706 9.091835381096736 1.4140624655512324 9.091835381096736 1.3336037192894268 M 10.200150682203388 1.5367620536004858 C 10.24842592996047 1.5367620536004858 10.268540616525922 1.5166473670350344 10.268540616525922 1.468372119277951 L 10.268540616525922 1.0439522327469268 C 10.268540616525922 1.0218260775249304 10.250437398617017 1.005734328272569 10.234345649364656 1.005734328272569 C 10.210208025486113 1.005734328272569 10.053313470275592 1.1123421670694615 10.02112997177087 1.136479790948003 C 10.00503822251851 1.148548602887274 9.999003816548873 1.1586059461699998 9.999003816548873 1.188777976018177 L 9.999003816548873 1.3155005013805205 L 9.834063386712172 1.3155005013805205 C 9.819983106116357 1.3155005013805205 9.807914294177085 1.3054431580977948 9.807914294177085 1.291362877501979 L 9.807914294177085 1.0660783879689233 L 10.039233189679777 0.9192411760411282 C 10.069405219527953 0.901137958132222 10.077451094154133 0.8850462088798609 10.077451094154133 0.8508512417185935 L 10.077451094154133 0.6657961253164407 C 10.077451094154133 0.6436699700944442 10.063370813558318 0.6235552835289928 10.039233189679777 0.6235552835289928 C 10.023141440427416 0.6235552835289928 10.00503822251851 0.6316011581551734 9.986935004609602 0.6436699700944442 L 9.807914294177085 0.756312214860972 L 9.807914294177085 0.26350239400741304 C 9.807914294177085 0.25143358206814215 9.819983106116357 0.23936477012887125 9.834063386712172 0.23936477012887125 L 9.999003816548873 0.23936477012887125 L 9.999003816548873 0.4606263223488365 C 9.999003816548873 0.48275247757083317 10.01710703445778 0.4988442268231943 10.03319878371014 0.4988442268231943 C 10.057336407588682 0.4988442268231943 10.214230962799203 0.3922363880263018 10.246414461303926 0.3680987641477602 C 10.262506210556287 0.3560299522084893 10.268540616525922 0.34597260892576354 10.268540616525922 0.31580057907758663 L 10.268540616525922 0.08649315223144072 C 10.268540616525922 0.038217904474357356 10.24842592996047 0.01810321790890601 10.200150682203388 0.01810321790890601 L 9.49613665241259 0.01810321790890601 C 9.467976091220956 0.01810321790890601 9.451884341968595 0.03419496716126713 9.451884341968595 0.052298185070173364 C 9.451884341968595 0.09453902685762139 9.538377494200036 0.14080280595815942 9.538377494200036 0.22126155221996502 L 9.538377494200036 1.3336037192894268 C 9.538377494200036 1.4140624655512324 9.451884341968595 1.4603262446517706 9.451884341968595 1.5025670864392184 C 9.451884341968595 1.5206703043481247 9.467976091220956 1.5367620536004858 9.49613665241259 1.5367620536004858 M 11.443245187085292 1.3336037192894268 C 11.443245187085292 1.4140624655512324 11.356752034853852 1.4603262446517706 11.356752034853852 1.5025670864392184 C 11.356752034853852 1.5206703043481247 11.372843784106212 1.5367620536004858 11.401004345297844 1.5367620536004858 L 11.744965485567063 1.5367620536004858 C 11.773126046758694 1.5367620536004858 11.789217796011057 1.5206703043481247 11.789217796011057 1.5025670864392184 C 11.789217796011057 1.4603262446517706 11.702724643779614 1.4140624655512324 11.702724643779614 1.3336037192894268 L 11.702724643779614 0.2172386149068748 C 11.702724643779614 0.1367798686450692 11.789217796011057 0.09051608954453094 11.789217796011057 0.04827524775708314 C 11.789217796011057 0.030172029848176907 11.773126046758694 0.014080280595815786 11.744965485567063 0.014080280595815786 L 11.48548602887274 0.014080280595815786 C 11.419107563206751 0.014080280595815786 11.39496993932821 0.06436699700944426 11.384912596045483 0.09453902685762139 L 11.091238172189893 0.9735508297678469 L 10.787506405051577 0.0704014029790796 C 10.777449061768852 0.04022937313090247 10.763368781173035 0.014080280595815786 10.699001784163592 0.014080280595815786 L 10.437510858812724 0.014080280595815786 C 10.40935029762109 0.014080280595815786 10.39325854836873 0.030172029848176907 10.39325854836873 0.04827524775708314 C 10.39325854836873 0.09051608954453094 10.47975170060017 0.1367798686450692 10.47975170060017 0.2172386149068748 L 10.47975170060017 1.3336037192894268 C 10.47975170060017 1.4140624655512324 10.39325854836873 1.4603262446517706 10.39325854836873 1.5025670864392184 C 10.39325854836873 1.5206703043481247 10.40935029762109 1.5367620536004858 10.437510858812724 1.5367620536004858 L 10.781471999081942 1.5367620536004858 C 10.809632560273574 1.5367620536004858 10.825724309525935 1.5206703043481247 10.825724309525935 1.5025670864392184 C 10.825724309525935 1.4603262446517706 10.739231157294494 1.4140624655512324 10.739231157294494 1.3336037192894268 L 10.739231157294494 0.7543007462044268 L 10.944400960262097 1.351706937198333 C 10.950435366231734 1.3718216237637844 10.952446834888278 1.3879133730161455 10.952446834888278 1.3999821849554164 C 10.950435366231734 1.4321656834601386 10.912217461757376 1.4643491819648609 10.912217461757376 1.5025670864392184 C 10.912217461757376 1.5206703043481247 10.928309211009736 1.5367620536004858 10.956469772201368 1.5367620536004858 L 11.223995103521872 1.5367620536004858 C 11.252155664713504 1.5367620536004858 11.268247413965865 1.5206703043481247 11.268247413965865 1.5025670864392184 C 11.268247413965865 1.4643491819648609 11.228018040834963 1.4321656834601386 11.228018040834963 1.3999821849554164 C 11.228018040834963 1.3879133730161455 11.230029509491509 1.3718216237637844 11.236063915461143 1.351706937198333 L 11.443245187085292 0.7522892775478817 M 12.113081928638563 1.5367620536004858 L 12.469111880847052 1.5367620536004858 C 12.565662376361217 1.5367620536004858 12.66020140321884 1.454291838682135 12.66020140321884 1.3718216237637844 L 12.66020140321884 0.9574590805154858 C 12.66020140321884 0.8709659282840448 12.623994967401027 0.830736555153142 12.557616501735037 0.786484244709149 L 12.221701236091999 0.5551653492064581 C 12.189517737587277 0.5310277253279163 12.183483331617643 0.5149359760755552 12.183483331617643 0.4867754148839234 L 12.183483331617643 0.23936477012887125 L 12.370549916676339 0.23936477012887125 L 12.370549916676339 0.37413317011739555 C 12.370549916676339 0.42643135518756914 12.386641665928702 0.44453457309647537 12.404744883837607 0.45660338503574627 C 12.438939850998874 0.4787295402577427 12.547559158452312 0.5551653492064581 12.595834406209395 0.5551653492064581 C 12.615949092774846 0.5551653492064581 12.64008671665339 0.5310277253279163 12.64008671665339 0.49482128951010385 L 12.64008671665339 0.18304364774560744 C 12.64008671665339 0.10057343282725673 12.561639439048127 0.01810321790890601 12.440951319655419 0.01810321790890601 L 12.10503605401238 0.01810321790890601 C 11.998428215215489 0.01810321790890601 11.913946531640594 0.07241287163562471 11.913946531640594 0.17298630446288166 L 11.913946531640594 0.5732685671153643 C 11.913946531640594 0.6617731880033504 11.96423324805422 0.7040140297907983 12.02256583909403 0.7442434029217011 L 12.354458167423978 0.9735508297678469 C 12.380607259959065 0.9916540476767531 12.390664603241792 1.0097572655856595 12.390664603241792 1.0359063581207462 L 12.390664603241792 1.3155005013805205 L 12.183483331617643 1.3155005013805205 L 12.183483331617643 1.1264224476652775 C 12.183483331617643 1.0741242625951037 12.16739158236528 1.0560210446861977 12.149288364456375 1.0439522327469268 C 12.117104865951653 1.0198146088683853 12.006474089841669 0.945390268576215 11.966244716710767 0.945390268576215 C 11.938084155519135 0.945390268576215 11.913946531640594 0.9675164237982116 11.913946531640594 1.003722859616024 L 11.913946531640594 1.3718216237637844 C 11.913946531640594 1.454291838682135 11.994405277902398 1.5367620536004858 12.113081928638563 1.5367620536004858" fill="url(#gradient-aa769484-0820-4f59-9348-72ebdfdd04a9)" fill-rule="nonzero"></path></g><g><path d=" M 0.07804010083993487 2.74347348491631 L 0.07804010083993487 2.725635747581468 L 0.16722878751414616 2.681041404244362 L 0.16722878751414616 2.070098900526015 L 0.07804010083993487 2.025504557188909 L 0.07804010083993487 2.007666819854067 L 0.35675474669684515 2.007666819854067 L 0.35675474669684515 2.025504557188909 L 0.26756606002263383 2.070098900526015 L 0.26756606002263383 2.681041404244362 L 0.35675474669684515 2.725635747581468 L 0.35675474669684515 2.74347348491631 L 0.07804010083993487 2.74347348491631 M 0.5017026934787192 2.74347348491631 L 0.5017026934787192 2.725635747581468 L 0.5908913801529305 2.681041404244362 L 0.5908913801529305 2.07232861769287 L 0.5028175520621468 2.025504557188909 L 0.5028175520621468 2.007666819854067 L 0.6667017638260101 2.007666819854067 L 1.0925777426953691 2.5427989398993347 L 1.0925777426953691 2.06786918335916 L 0.9810918843526049 2.025504557188909 L 0.9810918843526049 2.007666819854067 L 1.2586916716260874 2.007666819854067 L 1.2586916716260874 2.025504557188909 L 1.1706178435353038 2.068984041942587 L 1.1706178435353038 2.7490477778334483 L 1.1293680759484812 2.7490477778334483 L 0.6689314809928654 2.1682064558676473 L 0.6689314809928654 2.6821562628277897 L 0.7804173393356295 2.725635747581468 L 0.7804173393356295 2.74347348491631 L 0.5017026934787192 2.74347348491631 M 1.381327748896756 2.74347348491631 L 1.381327748896756 2.725635747581468 L 1.4705164355709672 2.681041404244362 L 1.4705164355709672 2.07232861769287 L 1.3824426074801837 2.025504557188909 L 1.3824426074801837 2.007666819854067 L 1.546326819244047 2.007666819854067 L 1.9722027981134058 2.5427989398993347 L 1.9722027981134058 2.06786918335916 L 1.8607169397706418 2.025504557188909 L 1.8607169397706418 2.007666819854067 L 2.138316727044124 2.007666819854067 L 2.138316727044124 2.025504557188909 L 2.0502428989533406 2.068984041942587 L 2.0502428989533406 2.7490477778334483 L 2.008993131366518 2.7490477778334483 L 1.5485565364109022 2.1682064558676473 L 1.5485565364109022 2.6821562628277897 L 1.6600423947536662 2.725635747581468 L 1.6600423947536662 2.74347348491631 L 1.381327748896756 2.74347348491631 M 2.654508771555604 2.7546220707505866 Q 2.574238953548814 2.7546220707505866 2.506790009251442 2.7261931768731817 Q 2.4393410649540694 2.697764282995777 2.3891724286998257 2.6470382174498193 Q 2.3390037924455815 2.596312151903861 2.3111323278598905 2.5271909197313476 Q 2.2832608632741995 2.458069687558834 2.2832608632741995 2.3755701523851886 Q 2.2832608632741995 2.293070617211543 2.3111323278598905 2.2239493850390293 Q 2.3390037924455815 2.1548281528665156 2.3891724286998257 2.104102087320558 Q 2.4393410649540694 2.0533760217746 2.506790009251442 2.024947127897195 Q 2.574238953548814 1.9965182340197907 2.654508771555604 1.9965182340197907 Q 2.7347785895623944 1.9965182340197907 2.8027849631514803 2.024947127897195 Q 2.8707913367405666 2.0533760217746 2.9209599729948104 2.104102087320558 Q 2.971128609249054 2.1548281528665156 2.999000073834745 2.2239493850390293 Q 3.026871538420436 2.293070617211543 3.026871538420436 2.3755701523851886 Q 3.026871538420436 2.458069687558834 2.999000073834745 2.5271909197313476 Q 2.971128609249054 2.596312151903861 2.9209599729948104 2.6470382174498193 Q 2.8707913367405666 2.697764282995777 2.8027849631514803 2.7261931768731817 Q 2.7347785895623944 2.7546220707505866 2.654508771555604 2.7546220707505866 M 2.6779208018075846 2.6988791415792046 Q 2.7492717511469538 2.6988791415792046 2.803342392443194 2.66320366690952 Q 2.8574130337394346 2.6275281922398355 2.888071644783695 2.5628663944010324 Q 2.9187302558279553 2.498204596562229 2.9187302558279553 2.4101307684714453 Q 2.9187302558279553 2.301989485878964 2.8808250639914155 2.2211622385804604 Q 2.8429198721548756 2.1403349912819563 2.7788155036077864 2.095740647944851 Q 2.7147111350606967 2.051146304607745 2.6355561756373342 2.051146304607745 Q 2.564205226297965 2.051146304607745 2.509019726418297 2.086264349985716 Q 2.453834226538629 2.1213823953636863 2.422618186202655 2.1860441932024894 Q 2.3914021458666808 2.2507059910412925 2.3914021458666808 2.3387798191320766 Q 2.3914021458666808 2.4469211017245573 2.4298647669949345 2.5283057783147753 Q 2.468327388123188 2.6096904549049933 2.5329891859619913 2.6542847982420987 Q 2.5976509838007944 2.6988791415792046 2.6779208018075846 2.6988791415792046 M 3.4683304966888184 2.7490477778334483 L 3.187386133665053 2.0645246076088766 L 3.110460891408546 2.025504557188909 L 3.110460891408546 2.007666819854067 L 3.389175537265456 2.007666819854067 L 3.389175537265456 2.025504557188909 L 3.293297699090679 2.066754324775732 L 3.293297699090679 2.07232861769287 L 3.5017762541916477 2.5829338489027296 L 3.507350547108786 2.5829338489027296 L 3.714714243626327 2.06786918335916 L 3.714714243626327 2.063409749025449 L 3.6232958397852606 2.025504557188909 L 3.6232958397852606 2.007666819854067 L 3.8574161423050652 2.007666819854067 L 3.8574161423050652 2.025504557188909 L 3.79386920304969 2.0589503146917383 L 3.507350547108786 2.7490477778334483 L 3.4683304966888184 2.7490477778334483 M 3.8440078992540854 2.74347348491631 L 3.8440078992540854 2.725635747581468 L 3.9153588485934545 2.6888454143283558 L 4.20076264595093 2.002092526936929 L 4.250931282205174 2.002092526936929 L 4.53187564522894 2.6855008385780725 L 4.606571170318592 2.725635747581468 L 4.606571170318592 2.74347348491631 L 4.330086241628537 2.74347348491631 L 4.330086241628537 2.725635747581468 L 4.428193796970169 2.687730555744928 L 4.344579403213096 2.4814817178108144 L 4.0736687674401795 2.4814817178108144 L 3.991169232266534 2.687730555744928 L 4.084817353274456 2.725635747581468 L 4.084817353274456 2.74347348491631 L 3.8440078992540854 2.74347348491631 M 4.099310514859015 2.420164495722294 L 4.3200525143776884 2.420164495722294 L 4.209681514618351 2.1459092841990945 L 4.099310514859015 2.420164495722294 M 4.823935932214421 2.74347348491631 L 4.823935932214421 2.725635747581468 L 4.935421790557185 2.681041404244362 L 4.935421790557185 2.068984041942587 L 4.75369984145848 2.068984041942587 L 4.6778894577854 2.2328682537064504 L 4.660051720450558 2.2328682537064504 L 4.660051720450558 2.007666819854067 L 5.3111291331723 2.007666819854067 L 5.3111291331723 2.2328682537064504 L 5.293291395837458 2.2328682537064504 L 5.217481012164378 2.068984041942587 L 5.035759063065672 2.068984041942587 L 5.035759063065672 2.681041404244362 L 5.147244921408437 2.725635747581468 L 5.147244921408437 2.74347348491631 L 4.823935932214421 2.74347348491631 M 5.439350390650961 2.74347348491631 L 5.439350390650961 2.725635747581468 L 5.5285390773251715 2.681041404244362 L 5.5285390773251715 2.070098900526015 L 5.439350390650961 2.025504557188909 L 5.439350390650961 2.007666819854067 L 5.718065036507871 2.007666819854067 L 5.718065036507871 2.025504557188909 L 5.628876349833659 2.070098900526015 L 5.628876349833659 2.681041404244362 L 5.718065036507871 2.725635747581468 L 5.718065036507871 2.74347348491631 L 5.439350390650961 2.74347348491631 M 6.245409477405426 2.7546220707505866 Q 6.165139659398636 2.7546220707505866 6.097690715101264 2.7261931768731817 Q 6.030241770803891 2.697764282995777 5.980073134549647 2.6470382174498193 Q 5.929904498295404 2.596312151903861 5.902033033709713 2.5271909197313476 Q 5.874161569124022 2.458069687558834 5.874161569124022 2.3755701523851886 Q 5.874161569124022 2.293070617211543 5.902033033709713 2.2239493850390293 Q 5.929904498295404 2.1548281528665156 5.980073134549647 2.104102087320558 Q 6.030241770803891 2.0533760217746 6.097690715101264 2.024947127897195 Q 6.165139659398636 1.9965182340197907 6.245409477405426 1.9965182340197907 Q 6.325679295412216 1.9965182340197907 6.393685669001302 2.024947127897195 Q 6.461692042590388 2.0533760217746 6.5118606788446325 2.104102087320558 Q 6.562029315098876 2.1548281528665156 6.589900779684567 2.2239493850390293 Q 6.617772244270258 2.293070617211543 6.617772244270258 2.3755701523851886 Q 6.617772244270258 2.458069687558834 6.589900779684567 2.5271909197313476 Q 6.562029315098876 2.596312151903861 6.5118606788446325 2.6470382174498193 Q 6.461692042590388 2.697764282995777 6.393685669001302 2.7261931768731817 Q 6.325679295412216 2.7546220707505866 6.245409477405426 2.7546220707505866 M 6.268821507657407 2.6988791415792046 Q 6.3401724569967755 2.6988791415792046 6.394243098293016 2.66320366690952 Q 6.448313739589256 2.6275281922398355 6.478972350633517 2.5628663944010324 Q 6.509630961677777 2.498204596562229 6.509630961677777 2.4101307684714453 Q 6.509630961677777 2.301989485878964 6.471725769841237 2.2211622385804604 Q 6.433820578004697 2.1403349912819563 6.369716209457608 2.095740647944851 Q 6.305611840910519 2.051146304607745 6.226456881487156 2.051146304607745 Q 6.155105932147787 2.051146304607745 6.099920432268119 2.086264349985716 Q 6.04473493238845 2.1213823953636863 6.013518892052477 2.1860441932024894 Q 5.9823028517165024 2.2507059910412925 5.9823028517165024 2.3387798191320766 Q 5.9823028517165024 2.4469211017245573 6.020765472844756 2.5283057783147753 Q 6.05922809397301 2.6096904549049933 6.123889891811813 2.6542847982420987 Q 6.188551689650616 2.6988791415792046 6.268821507657407 2.6988791415792046 M 6.762711481219449 2.74347348491631 L 6.762711481219449 2.725635747581468 L 6.8519001678936595 2.681041404244362 L 6.8519001678936595 2.07232861769287 L 6.763826339802876 2.025504557188909 L 6.763826339802876 2.007666819854067 L 6.927710551566739 2.007666819854067 L 7.353586530436099 2.5427989398993347 L 7.353586530436099 2.06786918335916 L 7.2421006720933345 2.025504557188909 L 7.2421006720933345 2.007666819854067 L 7.519700459366817 2.007666819854067 L 7.519700459366817 2.025504557188909 L 7.431626631276033 2.068984041942587 L 7.431626631276033 2.7490477778334483 L 7.390376863689211 2.7490477778334483 L 6.929940268733595 2.1682064558676473 L 6.929940268733595 2.6821562628277897 L 7.041426127076359 2.725635747581468 L 7.041426127076359 2.74347348491631 L 6.762711481219449 2.74347348491631 M 8.311262573984923 2.7546220707505866 Q 8.197546998475303 2.7546220707505866 8.115047463301659 2.7077980102466257 Q 8.032547928128013 2.6609739497426648 7.987953584790907 2.5801467024441607 Q 7.943359241453802 2.4993194551456566 7.943359241453802 2.395637606886886 Q 7.943359241453802 2.3164826474635234 7.974017852498061 2.244574268832441 Q 8.004676463542323 2.172665890201358 8.057632246255135 2.116922961029976 Q 8.110588028967948 2.0611800318585938 8.180266690432175 2.0288491329391922 Q 8.249945351896402 1.9965182340197907 8.327985452736337 1.9965182340197907 Q 8.38372838190772 1.9965182340197907 8.422748432327687 2.00376481481207 Q 8.461768482747654 2.01101139560435 8.492427093791914 2.02271741073034 Q 8.523085704836175 2.03442342585633 8.554301745172149 2.050031446024317 L 8.559876038089287 2.2451316981241547 L 8.53980858358759 2.2451316981241547 L 8.471802209998504 2.109118950945982 Q 8.429437583828253 2.079017769193436 8.397664114200566 2.0656394661923043 Q 8.365890644572877 2.0522611631911727 8.325755735569482 2.0522611631911727 Q 8.245485917562693 2.0522611631911727 8.18249640759903 2.0923960721945676 Q 8.119506897635368 2.132530981197963 8.08327399367397 2.2022096426621904 Q 8.047041089712572 2.271888304126418 8.047041089712572 2.3621918493840566 Q 8.047041089712572 2.4681034148096828 8.082159135090542 2.5433563691910486 Q 8.117277180468514 2.6186093235724144 8.176922114681892 2.6581868032840954 Q 8.236567048895271 2.697764282995777 8.309032856818067 2.697764282995777 Q 8.370350078906588 2.697764282995777 8.412157275785125 2.680483974952648 Q 8.453964472663662 2.66320366690952 8.486295371583063 2.642021353824395 L 8.55318688658872 2.522731485397637 L 8.57213948250699 2.522731485397637 L 8.559876038089287 2.699994000162632 Q 8.527545139169886 2.716716878914047 8.493541952375342 2.7289803233317507 Q 8.459538765580799 2.7412437677494546 8.416059280827122 2.7479329192500206 Q 8.372579796073444 2.7546220707505866 8.311262573984923 2.7546220707505866 M 9.124009179146325 2.7546220707505866 Q 9.043739361139535 2.7546220707505866 8.976290416842163 2.7261931768731817 Q 8.90884147254479 2.697764282995777 8.858672836290546 2.6470382174498193 Q 8.808504200036303 2.596312151903861 8.780632735450611 2.5271909197313476 Q 8.752761270864921 2.458069687558834 8.752761270864921 2.3755701523851886 Q 8.752761270864921 2.293070617211543 8.780632735450611 2.2239493850390293 Q 8.808504200036303 2.1548281528665156 8.858672836290546 2.104102087320558 Q 8.90884147254479 2.0533760217746 8.976290416842163 2.024947127897195 Q 9.043739361139535 1.9965182340197907 9.124009179146325 1.9965182340197907 Q 9.204278997153116 1.9965182340197907 9.272285370742201 2.024947127897195 Q 9.340291744331287 2.0533760217746 9.390460380585532 2.104102087320558 Q 9.440629016839775 2.1548281528665156 9.468500481425467 2.2239493850390293 Q 9.496371946011157 2.293070617211543 9.496371946011157 2.3755701523851886 Q 9.496371946011157 2.458069687558834 9.468500481425467 2.5271909197313476 Q 9.440629016839775 2.596312151903861 9.390460380585532 2.6470382174498193 Q 9.340291744331287 2.697764282995777 9.272285370742201 2.7261931768731817 Q 9.204278997153116 2.7546220707505866 9.124009179146325 2.7546220707505866 M 9.147421209398306 2.6988791415792046 Q 9.218772158737675 2.6988791415792046 9.272842800033915 2.66320366690952 Q 9.326913441330156 2.6275281922398355 9.357572052374415 2.5628663944010324 Q 9.388230663418677 2.498204596562229 9.388230663418677 2.4101307684714453 Q 9.388230663418677 2.301989485878964 9.350325471582137 2.2211622385804604 Q 9.312420279745597 2.1403349912819563 9.248315911198507 2.095740647944851 Q 9.184211542651418 2.051146304607745 9.105056583228055 2.051146304607745 Q 9.033705633888687 2.051146304607745 8.978520134009019 2.086264349985716 Q 8.92333463412935 2.1213823953636863 8.892118593793375 2.1860441932024894 Q 8.860902553457402 2.2507059910412925 8.860902553457402 2.3387798191320766 Q 8.860902553457402 2.4469211017245573 8.899365174585656 2.5283057783147753 Q 8.93782779571391 2.6096904549049933 9.002489593552713 2.6542847982420987 Q 9.067151391391516 2.6988791415792046 9.147421209398306 2.6988791415792046 M 9.641311182960347 2.74347348491631 L 9.641311182960347 2.725635747581468 L 9.73049986963456 2.681041404244362 L 9.73049986963456 2.07232861769287 L 9.642426041543775 2.025504557188909 L 9.642426041543775 2.007666819854067 L 9.80631025330764 2.007666819854067 L 10.232186232176998 2.5427989398993347 L 10.232186232176998 2.06786918335916 L 10.120700373834234 2.025504557188909 L 10.120700373834234 2.007666819854067 L 10.398300161107716 2.007666819854067 L 10.398300161107716 2.025504557188909 L 10.310226333016933 2.068984041942587 L 10.310226333016933 2.7490477778334483 L 10.26897656543011 2.7490477778334483 L 9.808539970474493 2.1682064558676473 L 9.808539970474493 2.6821562628277897 L 9.92002582881726 2.725635747581468 L 9.92002582881726 2.74347348491631 L 9.641311182960347 2.74347348491631 M 10.850934379072967 2.7490477778334483 L 10.569990016049202 2.0645246076088766 L 10.493064773792694 2.025504557188909 L 10.493064773792694 2.007666819854067 L 10.771779419649604 2.007666819854067 L 10.771779419649604 2.025504557188909 L 10.675901581474827 2.066754324775732 L 10.675901581474827 2.07232861769287 L 10.884380136575796 2.5829338489027296 L 10.889954429492935 2.5829338489027296 L 11.097318126010476 2.06786918335916 L 11.097318126010476 2.063409749025449 L 11.00589972216941 2.025504557188909 L 11.00589972216941 2.007666819854067 L 11.240020024689214 2.007666819854067 L 11.240020024689214 2.025504557188909 L 11.176473085433837 2.0589503146917383 L 10.889954429492935 2.7490477778334483 L 10.850934379072967 2.7490477778334483 M 11.351494995741124 2.74347348491631 L 11.351494995741124 2.725635747581468 L 11.440683682415335 2.681041404244362 L 11.440683682415335 2.070098900526015 L 11.351494995741124 2.025504557188909 L 11.351494995741124 2.007666819854067 L 11.89666084303724 2.007666819854067 L 11.89666084303724 2.199422496203621 L 11.878823105702399 2.199422496203621 L 11.809701873529885 2.068984041942587 L 11.541020954923823 2.068984041942587 L 11.541020954923823 2.3332055262149383 L 11.730546914106522 2.3332055262149383 L 11.786289843277904 2.2406722637904437 L 11.804127580612747 2.2406722637904437 L 11.804127580612747 2.484826293561097 L 11.786289843277904 2.484826293561097 L 11.730546914106522 2.3945227483034586 L 11.541020954923823 2.3945227483034586 L 11.541020954923823 2.6821562628277897 L 11.840917913865859 2.6821562628277897 L 11.910039146038372 2.540569222732479 L 11.927876883373214 2.540569222732479 L 11.927876883373214 2.74347348491631 L 11.351494995741124 2.74347348491631 M 12.248920227340557 2.74347348491631 L 12.248920227340557 2.725635747581468 L 12.349257499849045 2.681041404244362 L 12.349257499849045 2.4000970412205964 L 12.101758894328109 2.062294890442021 L 12.033752520739023 2.025504557188909 L 12.033752520739023 2.007666819854067 L 12.303548297928511 2.007666819854067 L 12.303548297928511 2.025504557188909 L 12.222163621338295 2.0645246076088766 L 12.222163621338295 2.068984041942587 L 12.421723307771842 2.339894677715504 L 12.601215539703693 2.070098900526015 L 12.601215539703693 2.0656394661923043 L 12.519830863113475 2.025504557188909 L 12.519830863113475 2.007666819854067 L 12.756180882800134 2.007666819854067 L 12.756180882800134 2.025504557188909 L 12.684829933460765 2.062294890442021 L 12.449594772357534 2.398982182637169 L 12.449594772357534 2.681041404244362 L 12.54993204486602 2.725635747581468 L 12.54993204486602 2.74347348491631 L 12.248920227340557 2.74347348491631 M 13.199938692532294 2.7546220707505866 Q 13.119668874525503 2.7546220707505866 13.052219930228132 2.7261931768731817 Q 12.984770985930759 2.697764282995777 12.934602349676515 2.6470382174498193 Q 12.884433713422272 2.596312151903861 12.85656224883658 2.5271909197313476 Q 12.82869078425089 2.458069687558834 12.82869078425089 2.3755701523851886 Q 12.82869078425089 2.293070617211543 12.85656224883658 2.2239493850390293 Q 12.884433713422272 2.1548281528665156 12.934602349676515 2.104102087320558 Q 12.984770985930759 2.0533760217746 13.052219930228132 2.024947127897195 Q 13.119668874525503 1.9965182340197907 13.199938692532294 1.9965182340197907 Q 13.280208510539085 1.9965182340197907 13.34821488412817 2.024947127897195 Q 13.416221257717256 2.0533760217746 13.4663898939715 2.104102087320558 Q 13.516558530225744 2.1548281528665156 13.544429994811436 2.2239493850390293 Q 13.572301459397126 2.293070617211543 13.572301459397126 2.3755701523851886 Q 13.572301459397126 2.458069687558834 13.544429994811436 2.5271909197313476 Q 13.516558530225744 2.596312151903861 13.4663898939715 2.6470382174498193 Q 13.416221257717256 2.697764282995777 13.34821488412817 2.7261931768731817 Q 13.280208510539085 2.7546220707505866 13.199938692532294 2.7546220707505866 M 13.223350722784275 2.6988791415792046 Q 13.294701672123644 2.6988791415792046 13.348772313419884 2.66320366690952 Q 13.402842954716125 2.6275281922398355 13.433501565760384 2.5628663944010324 Q 13.464160176804645 2.498204596562229 13.464160176804645 2.4101307684714453 Q 13.464160176804645 2.301989485878964 13.426254984968105 2.2211622385804604 Q 13.388349793131566 2.1403349912819563 13.324245424584475 2.095740647944851 Q 13.260141056037387 2.051146304607745 13.180986096614024 2.051146304607745 Q 13.109635147274656 2.051146304607745 13.054449647394987 2.086264349985716 Q 12.99926414751532 2.1213823953636863 12.968048107179344 2.1860441932024894 Q 12.93683206684337 2.2507059910412925 12.93683206684337 2.3387798191320766 Q 12.93683206684337 2.4469211017245573 12.975294687971624 2.5283057783147753 Q 13.013757309099878 2.6096904549049933 13.078419106938682 2.6542847982420987 Q 13.143080904777484 2.6988791415792046 13.223350722784275 2.6988791415792046 M 13.722814989263455 2.74347348491631 L 13.722814989263455 2.725635747581468 L 13.812003675937666 2.681041404244362 L 13.812003675937666 2.070098900526015 L 13.722814989263455 2.025504557188909 L 13.722814989263455 2.007666819854067 L 14.010448503787787 2.007666819854067 Q 14.127508655047688 2.007666819854067 14.194957599345061 2.0561631682331694 Q 14.262406543642433 2.104659516612272 14.262406543642433 2.1893887689527727 Q 14.262406543642433 2.2518208496247203 14.220041917472184 2.3014320565872506 Q 14.177677291301933 2.3510432635497804 14.107441200545992 2.376685010968616 L 14.319264331397243 2.6855008385780725 L 14.392844997903467 2.725635747581468 L 14.392844997903467 2.74347348491631 L 14.232305361889887 2.74347348491631 L 14.016022796704924 2.4056713341377347 L 13.912340948446154 2.4056713341377347 L 13.912340948446154 2.6799265456609347 L 13.995955342203228 2.725635747581468 L 13.995955342203228 2.74347348491631 L 13.722814989263455 2.74347348491631 M 13.98480675636895 2.068984041942587 L 13.912340948446154 2.068984041942587 L 13.912340948446154 2.3443541120492144 L 13.991495907869517 2.3443541120492144 Q 14.061731998625458 2.3443541120492144 14.107998629837706 2.3047766323375334 Q 14.154265261049952 2.265199152625852 14.154265261049952 2.2038819305373316 Q 14.154265261049952 2.141449849865384 14.10855605912942 2.105216945903986 Q 14.062846857208886 2.068984041942587 13.98480675636895 2.068984041942587" fill="#bfe4ff" fill-rule="nonzero"></path></g><g clip-path="url(#SvgjsClipPath1007)"><g clip-path="url(#SvgjsClipPath100003fcf97b-79ad-4294-80fd-53ee47318ecc)"><path d=" M -6.37898774304195 3.2751728517835232 C -6.37898774304195 3.1153584152671208 -6.791605451919068 2.979520194264582 -6.791605451919068 2.588205676874445 C -6.791605451919068 2.285303454191684 -6.647302654831399 2.2115522912681227 -6.647302654831399 1.737698031956943 C -6.647302654831399 1.387045880066671 -6.890912344554199 0.9496419483948126 -7.438355765332762 0.6356831263281235 C -7.985799186111327 0.32172430426143395 -9.827512740634113 -0.31052687882461893 -10.473331545674801 -0.6468419018434253 C -10.897005853935848 -0.8674878851534515 -11.050259231477174 -0.9829949234060569 -11.122714382751337 -0.9829949234060569 C -11.1951695340255 -0.9829949234060569 -11.259565112854967 -0.9033712076961615 -11.259565112854967 -0.6842237378557516 C -11.259565112854967 -0.4650762680153422 -11.153130156148148 0.12436603027653015 -10.530558560068537 0.5555329058856597 C -10.648657621619938 0.7415510779383303 -10.478718094092613 1.1968561705175003 -10.031472573958139 1.37485527048952 C -10.084123047214936 1.4265337350092688 -10.14058055469184 1.5085064718336987 -10.14058055469184 1.587765684267201 C -10.14058055469184 1.7165568419261372 -10.017135445086671 2.0573674053537934 -9.365970591992214 2.202277707902118 C -9.41246500991437 2.240429050831274 -9.459121429292702 2.322725790568053 -9.459121429292702 2.411867091828216 C -9.459121429292702 2.589582689251931 -9.188700498572981 2.942138358252257 -8.381811745730534 2.938128822211932 C -8.538062150211092 3.026095612914827 -8.559810845702554 3.1369856096664517 -8.559810845702554 3.1745699474989975 C -8.559810845702554 3.380311796840945 -8.308708588631674 3.5353471904001914 -8.019859992272071 3.5353471904001914 C -7.7169172692252666 3.5353471904001914 -7.579175531112675 3.4762976596244926 -7.579175531112675 3.4762976596244926 C -7.537419655783632 3.618048933777409 -7.404456960628194 3.726751910870674 -7.176642412882435 3.726751910870674 C -6.923798640157674 3.726751910870674 -6.672169878354225 3.6104753657012383 -6.451685896500374 3.4041665112626776 C -6.4221611311125235 3.376342761164662 -6.37898774304195 3.327053818123492 -6.37898774304195 3.2751728517835232 Z" fill="#80caff" transform="matrix(1,0,0,1,0,0)" fill-rule="nonzero"></path></g><g clip-path="url(#SvgjsClipPath100003fcf97b-79ad-4294-80fd-53ee47318ecc)"><path d=" M -6.697401605153444 3.283556427140568 C -6.99200125320725 3.078422083259275 -7.139787081602677 2.771591325264276 -7.159105755251517 2.4963913515873983 C -7.183405973677732 2.1457391996971253 -6.911041025483912 1.6198014722257599 -8.059590849398932 1.066404497932772 C -7.3964783889115875 1.1021663193833506 -6.948017857855801 1.4969638680812463 -6.95393091100618 2.062267949403079 C -6.808453603361245 1.5732665539395596 -7.0225385276961925 1.2172683539955196 -7.496635789191634 0.9161076469666365 C -8.088224606777821 0.5403047690052318 -10.455592386223666 -0.237180719541496 -10.986916662112842 -0.6039520163211571 C -10.9432167693097 -0.07971530413962657 -10.4017674024096 0.38061183358096007 -9.991498714647015 0.6465777242558763 C -10.163260758556307 0.6134889268321815 -10.265524177766626 0.6167694563197201 -10.300394991208243 0.6170934592320694 C -10.300394991208243 0.7569007159108894 -10.273624250575365 0.9082505763421611 -10.036818622011905 1.0592359334970387 C -9.65157915922832 1.3049516421501102 -9.142327581742958 1.3693472209795778 -8.722541308430102 1.5290401564038494 C -9.186148975638229 1.5212640865074614 -9.317653657688092 1.4693831201674936 -9.538583143546425 1.4568685076779933 C -9.759512629404757 1.4443538951884929 -9.82573072461619 1.4971258695374223 -9.857928514030924 1.56601698877574 C -9.890126303445658 1.6349081080140568 -9.738938444470561 1.8379364329650782 -9.376703188463793 1.9470444136987795 C -9.014467932457023 2.056152394432482 -8.732747400169114 2.0323381803747926 -8.037639652087252 2.1751424639928443 C -8.634858020275512 2.1998881864235393 -8.992071231140864 2.2791878992210863 -9.041562676002254 2.2905280011533193 C -9.091054120863644 2.3018681030855532 -9.175213877346433 2.348362521007709 -9.175213877346433 2.3895108908760987 C -9.175213877346433 2.4306592607444886 -9.052092770653614 2.668963402777564 -8.454550399553003 2.668963402777564 C -8.143264601513197 2.668963402777564 -7.945582324615943 2.6134779040377083 -7.5519997868393585 2.5982902675213237 C -7.724207334753132 2.7494376261323774 -8.290402424083926 3.1202184589523645 -8.290402424083926 3.1823865177594284 C -8.290402424083926 3.251237136633703 -8.030268585831301 3.2836374278686558 -7.971826560516254 3.2836374278686558 C -7.913384535201208 3.2836374278686558 -7.447792350154943 3.2688547949927083 -7.2277538723055725 3.0264601161912204 C -7.216697272921644 3.014310006978114 -7.207220187735421 3.0264601161912204 -7.210460216858916 3.042093256712085 C -7.249219065248727 3.2272609211198384 -7.312723636069235 3.301052584407442 -7.312723636069235 3.365448163236909 C -7.312723636069235 3.429843742066377 -7.247437049230806 3.484883736801753 -7.181259454383415 3.484883736801753 C -7.115081859536024 3.484883736801753 -6.910879024027738 3.4362022992212378 -6.697401605153444 3.283556427140568 Z" fill="#0f1622" transform="matrix(1,0,0,1,0,0)" fill-rule="nonzero"></path></g><g clip-path="url(#SvgjsClipPath100003fcf97b-79ad-4294-80fd-53ee47318ecc)"><path d=" M -5.280617870177062 3.2751728517835232 C -5.280617870177062 3.1153584152671208 -4.868000161299942 2.979520194264582 -4.868000161299942 2.588205676874445 C -4.868000161299942 2.285303454191684 -5.012302958387612 2.2115522912681227 -5.012302958387612 1.737698031956943 C -5.012302958387612 1.387045880066671 -4.768693268664814 0.9496419483948126 -4.221249847886248 0.6356831263281235 C -3.6738064271076825 0.32172430426143395 -1.832092872584898 -0.31068888028079367 -1.1862740675442112 -0.6470039032996 C -0.7625997592831624 -0.8676498866096263 -0.6093463817418385 -0.9831569248622316 -0.5368912304676741 -0.9831569248622316 C -0.4644360791935114 -0.9831569248622316 -0.40004050036404415 -0.9035332091523357 -0.40004050036404415 -0.6843857393119264 C -0.40004050036404415 -0.4652382694715169 -0.5064754570708647 0.12420402882035542 -1.1290470531504742 0.555370904429485 C -1.0109479915990747 0.7413890764821556 -1.180887519126399 1.196694169061325 -1.6281330392608737 1.3746932690333449 C -1.5754825660040765 1.426371733553095 -1.5190250585271716 1.5083444703775244 -1.5190250585271716 1.5876036828110258 C -1.5190250585271716 1.716394840469962 -1.6424701681323395 2.057205403897619 -2.293635021226798 2.2021157064459427 C -2.24714060330464 2.2402670493751 -2.20048418392631 2.3225637891118787 -2.20048418392631 2.411705090372042 C -2.20048418392631 2.589420687795756 -2.4709051146460297 2.941976356796082 -3.2777938674884766 2.937966820755757 C -3.121543463007919 3.025933611458653 -3.0997947675164585 3.1368236082102774 -3.0997947675164585 3.1744079460428223 C -3.0997947675164585 3.380149795384771 -3.350897024587341 3.535185188944017 -3.6397456209469414 3.535185188944017 C -3.942688343993747 3.535185188944017 -4.0804300821063375 3.4761356581683165 -4.0804300821063375 3.4761356581683165 C -4.1221859574353825 3.617886932321235 -4.255148652590818 3.7265899094145 -4.482963200336578 3.7265899094145 C -4.735806973061337 3.7265899094145 -4.987435734864787 3.610313364245064 -5.207919716718638 3.404004509806504 C -5.237444482106486 3.376342761164662 -5.280617870177062 3.327053818123492 -5.280617870177062 3.2751728517835232 Z" fill="#80caff" transform="matrix(1,0,0,1,0,0)" fill-rule="nonzero"></path></g><g clip-path="url(#SvgjsClipPath100003fcf97b-79ad-4294-80fd-53ee47318ecc)"><path d=" M -4.962204008065568 3.283556427140568 C -4.667604360011764 3.078422083259275 -4.519818531616336 2.771591325264276 -4.500499857967495 2.4963913515873983 C -4.476199639541282 2.1457391996971253 -4.748564587735101 1.6198014722257599 -3.60001476382008 1.066404497932772 C -4.263127224307424 1.1021663193833506 -4.711587755363211 1.4969638680812463 -4.705674702212832 2.062267949403079 C -4.851152009857768 1.5732665539395596 -4.63706708552282 1.2172683539955196 -4.162969824027378 0.9161076469666365 C -3.5713810064411895 0.5403047690052318 -1.2040132269953467 -0.237180719541496 -0.6726889511061707 -0.6039520163211571 C -0.7162268424531373 -0.07975580450367004 -1.257676209353237 0.3805713332169165 -1.667944897115822 0.6465372238918323 C -1.4961828532065322 0.613448426468137 -1.3939194339962118 0.6167289559556761 -1.3590486205545957 0.6170529588680254 C -1.3590486205545957 0.7568602155468453 -1.3858193611874743 0.9082100759781175 -1.622624989750932 1.0591954331329954 C -2.007864452534516 1.3049111417860664 -2.5171160300198814 1.3693067206155345 -2.936902303332733 1.528999656039806 C -2.47329463612461 1.5212235861434167 -2.341789954074745 1.4693426198034498 -2.1208604682164136 1.45682800731395 C -1.8999309823580823 1.4443133948244495 -1.833712887146648 1.497085369173379 -1.8015150977319134 1.5659764884116953 C -1.7693173083171807 1.634867607650013 -1.9205051672922782 1.837895932601035 -2.282740423299046 1.947003913334736 C -2.6449756793058157 2.0561118940684384 -2.9266962115937254 2.032297680010749 -3.6218039596755878 2.1751019636288014 C -3.024585591487325 2.1998476860594955 -2.667372380621977 2.2791473988570425 -2.617880935760585 2.2904875007892755 C -2.568389490899193 2.3018276027215085 -2.484229734416406 2.348322020643665 -2.484229734416406 2.389470390512056 C -2.484229734416406 2.4306187603804457 -2.607350841109225 2.668922902413521 -3.2048932122098357 2.668922902413521 C -3.516179010249643 2.668922902413521 -3.7138612871468952 2.6134374036736645 -4.107443824923481 2.598249767157281 C -3.9352362770097074 2.7493971257683336 -3.3690411876789135 3.12017795858832 -3.3690411876789135 3.1823460173953855 C -3.3690411876789135 3.2511966362696594 -3.629175025931537 3.283596927504612 -3.6876170512465825 3.283596927504612 C -3.746059076561627 3.283596927504612 -4.211651261607893 3.2688142946286645 -4.431689739457265 3.0264196158271766 C -4.442746338841191 3.0142695066140703 -4.452223424027415 3.0264196158271766 -4.44898339490392 3.042052756348041 C -4.410224546514107 3.2272204207557946 -4.346719975693601 3.301012084043398 -4.346719975693601 3.365407662872867 C -4.346719975693601 3.4298032417023325 -4.412006562532031 3.484843236437708 -4.47818415737942 3.484843236437708 C -4.544361752226812 3.484843236437708 -4.748726589191275 3.4362022992212378 -4.962204008065568 3.283556427140568 Z" fill="#0f1622" transform="matrix(1,0,0,1,0,0)" fill-rule="nonzero"></path></g><g clip-path="url(#SvgjsClipPath100003fcf97b-79ad-4294-80fd-53ee47318ecc)"><path d=" M -10.194243537049731 0.9483459367454139 C -9.998667279082749 1.0962127658689285 -9.298577986223515 1.3645681780224213 -8.954932397312799 1.4611615462666234 C -8.611286808402086 1.5577549145108252 -9.734037900421274 1.3311553776863774 -9.734037900421274 1.3311553776863774 Z" fill="#80caff" transform="matrix(1,0,0,1,0,0)" fill-rule="nonzero"></path></g><g clip-path="url(#SvgjsClipPath100003fcf97b-79ad-4294-80fd-53ee47318ecc)"><path d=" M -9.805440042230302 1.7378600334131182 C -9.614642827220475 1.8559185946004766 -8.895437362532618 2.08016911031039 -8.455360406833876 2.1099773782465476 L -9.009931891684133 2.163640360604438 L -9.848289427388526 1.8676231998091029 Z" fill="#80caff" transform="matrix(1,0,0,1,0,0)" fill-rule="nonzero"></path></g><g clip-path="url(#SvgjsClipPath100003fcf97b-79ad-4294-80fd-53ee47318ecc)"><path d=" M -9.1208623887998 2.300491090708068 C -9.145162607226013 2.4069260474148866 -9.099397195856644 2.6583118070340728 -7.950887872305666 2.6377376220998787 C -7.357031034333032 2.6270860263563875 -8.820309187231572 2.8121321896720097 -8.820309187231572 2.8121321896720097 L -9.259495134921352 2.5876386717778326 L -9.343614391040097 2.381086815155011 Z" fill="#80caff" transform="matrix(1,0,0,1,0,0)" fill-rule="nonzero"></path></g><g clip-path="url(#SvgjsClipPath100003fcf97b-79ad-4294-80fd-53ee47318ecc)"><path d=" M -6.815784169253152 3.1601113175353994 C -6.927605674377782 3.2620912341974124 -7.271089261832323 3.4776341716379324 -7.339939880706595 3.318427240582185 C -7.408790499580869 3.159220309526437 -7.245128528480316 3.0858741502433134 -7.245128528480316 3.0858741502433134 L -7.218276787119348 3.035775199921269 C -7.218276787119348 3.035775199921269 -7.3142221495388515 2.92857073629762 -7.332771316270862 2.93646830728614 C -7.5117019246158865 3.0125279909601907 -8.121718407841954 3.2692192982691015 -8.285420879306551 3.1502697290727815 C -8.452525381350817 3.0287686369417104 -8.468806527696382 3.2218338723379842 -8.468806527696382 3.2218338723379842 C -8.468806527696382 3.2218338723379842 -8.01171941909929 3.379258787375809 -7.9616204687772445 3.379258787375809 C -7.911521518455199 3.379258787375809 -7.549245762084388 3.3479520059700354 -7.549245762084388 3.3479520059700354 L -7.3650096060496395 3.5107229690616286 L -7.018812494204173 3.5662084678014843 L -6.692339059647983 3.431139753715777 L -6.573389490451664 3.244190073290101 L -6.729923397480529 3.141319148619127 Z" fill="#80caff" transform="matrix(1,0,0,1,0,0)" fill-rule="nonzero"></path></g><g clip-path="url(#SvgjsClipPath100003fcf97b-79ad-4294-80fd-53ee47318ecc)"><path d=" M -11.013606402017635 -0.6235946928823468 C -10.917013033773433 -0.4428820685193997 -8.907992475386163 0.40511455382739325 -8.380232231532831 0.46946963229281713 C -7.855631016074907 0.5335007078458918 -8.872190153571541 0.16535239868874485 -8.872190153571541 0.16535239868874485 L -10.891943308430388 -0.6932553190374947 Z" fill="#ffffff" transform="matrix(1,0,0,1,0,0)" fill-rule="nonzero"></path></g><g clip-path="url(#SvgjsClipPath100003fcf97b-79ad-4294-80fd-53ee47318ecc)"><path d=" M -7.876934207561888 1.1009918088260837 C -8.259784148866895 1.0186950690893048 -8.326488248446854 1.0043984405818824 -8.326488248446854 1.0043984405818824 C -8.326488248446854 1.0043984405818824 -8.425147135257284 1.0791216122424914 -8.243341001065158 1.1826000423741208 C -7.037240159844053 1.8700937220157676 -7.340182882890858 2.3352404030575533 -7.1159323671809425 2.658433308126205 C -6.91452405679167 2.9487804179554225 -7.0372401598440515 2.2708043238640423 -7.0372401598440515 2.2708043238640423 C -7.0372401598440515 2.2708043238640423 -7.1314440066096765 1.6184244598482758 -7.1541242104741425 1.5719300419261184 C -7.1768044143386085 1.5254356240039615 -7.876934207561888 1.1009918088260837 -7.876934207561888 1.1009918088260837 Z" fill="#80caff" transform="matrix(1,0,0,1,0,0)" fill-rule="nonzero"></path></g><g clip-path="url(#SvgjsClipPath100003fcf97b-79ad-4294-80fd-53ee47318ecc)"><path d=" M -10.031472573958139 0.34513351467868714 C -9.942007269785627 0.5830731534353693 -9.822126192216302 0.7136868274762713 -9.822126192216302 0.7136868274762713 C -8.99652627118567 1.012417512662533 -8.500113309102154 1.049839849038902 -8.233539912966583 1.1877435886076688 C -8.212696107935772 1.1391406257129868 -8.198264841457021 1.08803215933447 -8.190609527080271 1.0357052219876552 C -8.612785321871701 0.8022206232757787 -9.723750807954177 0.42119319835273794 -10.031472573958139 0.34513351467868714 Z" fill="#80caff" transform="matrix(1,0,0,1,0,0)" fill-rule="nonzero"></path></g><g clip-path="url(#SvgjsClipPath100003fcf97b-79ad-4294-80fd-53ee47318ecc)"><path d=" M -9.853351972893988 0.6752114816347654 C -9.834154800337277 0.700605209890159 -9.822126192216302 0.7136868274762713 -9.822126192216302 0.7136868274762713 C -9.318463664968966 0.8959384656728784 -8.937274238589751 0.9809892301646284 -8.656080211034407 1.050892858504039 C -9.046868223691977 0.9243697212315498 -9.65178166104854 0.7357595258800829 -9.853351972893988 0.6752114816347654 Z" fill="#ffffff" transform="matrix(1,0,0,1,0,0)" fill-rule="nonzero"></path></g><g clip-path="url(#SvgjsClipPath100003fcf97b-79ad-4294-80fd-53ee47318ecc)"><path d=" M -1.4653620761692796 0.9483459367454139 C -1.6609383341362616 1.0962127658689285 -2.3610276269954973 1.3645681780224213 -2.7046732159062117 1.4611615462666234 C -3.0483188048169243 1.5577549145108252 -1.9255677127977364 1.3311553776863774 -1.9255677127977364 1.3311553776863774 Z" fill="#80caff" transform="matrix(1,0,0,1,0,0)" fill-rule="nonzero"></path></g><g clip-path="url(#SvgjsClipPath100003fcf97b-79ad-4294-80fd-53ee47318ecc)"><path d=" M -1.8541655709887106 1.7378600334131182 C -2.0449627859985355 1.8559185946004766 -2.764168250686394 2.08016911031039 -3.204245206385133 2.1099773782465476 L -2.64967372153488 2.163640360604438 L -1.8113161858304867 1.8676231998091029 Z" fill="#80caff" transform="matrix(1,0,0,1,0,0)" fill-rule="nonzero"></path></g><g clip-path="url(#SvgjsClipPath100003fcf97b-79ad-4294-80fd-53ee47318ecc)"><path d=" M -2.5387432244192123 2.300491090708068 C -2.514443005992998 2.4069260474148866 -2.560208417362368 2.6583118070340728 -3.708717740913345 2.6377376220998787 C -4.30257457888598 2.6270860263563875 -2.83929642598744 2.8121321896720097 -2.83929642598744 2.8121321896720097 L -2.400110478297659 2.5876386717778326 L -2.315991222178914 2.381086815155011 Z" fill="#80caff" transform="matrix(1,0,0,1,0,0)" fill-rule="nonzero"></path></g><g clip-path="url(#SvgjsClipPath100003fcf97b-79ad-4294-80fd-53ee47318ecc)"><path d=" M -4.843821443965861 3.1601113175353994 C -4.73199993884123 3.2620912341974124 -4.3885163513866905 3.4776341716379324 -4.3196657325124175 3.318427240582185 C -4.250815113638143 3.159220309526437 -4.414477084738696 3.0858741502433134 -4.414477084738696 3.0858741502433134 L -4.441328826099663 3.035775199921269 C -4.441328826099663 3.035775199921269 -4.345383463680159 2.92857073629762 -4.32683429694815 2.93646830728614 C -4.147903688603126 3.0125279909601907 -3.537887205377058 3.2692192982691015 -3.374184733912462 3.1502697290727815 C -3.2070802318681935 3.0287686369417104 -3.190799085522631 3.2218338723379842 -3.190799085522631 3.2218338723379842 C -3.190799085522631 3.2218338723379842 -3.647886194119722 3.379258787375809 -3.697985144441766 3.379258787375809 C -3.7480840947638123 3.379258787375809 -4.110359851134625 3.3479520059700354 -4.110359851134625 3.3479520059700354 L -4.294596007169372 3.5107229690616286 L -4.64079311901484 3.5662084678014843 L -4.967145052478898 3.431139753715777 L -5.086094621675217 3.2441900732901 L -4.929560714646352 3.141319148619126 Z" fill="#80caff" transform="matrix(1,0,0,1,0,0)" fill-rule="nonzero"></path></g><g clip-path="url(#SvgjsClipPath100003fcf97b-79ad-4294-80fd-53ee47318ecc)"><path d=" M -0.6459992112013779 -0.6235946928823468 C -0.7425925794455797 -0.4428820685193997 -2.751613137832848 0.40511455382739325 -3.279373381686182 0.46946963229281713 C -3.803974597144105 0.5335007078458918 -2.787415459647473 0.16535239868874485 -2.787415459647473 0.16535239868874485 L -0.767662304788626 -0.6932553190374947 Z" fill="#ffffff" transform="matrix(1,0,0,1,0,0)" fill-rule="nonzero"></path></g><g clip-path="url(#SvgjsClipPath100003fcf97b-79ad-4294-80fd-53ee47318ecc)"><path d=" M -3.7826714056571236 1.1009918088260837 C -3.399821464352115 1.0186950690893048 -3.333117364772158 1.0043984405818824 -3.333117364772158 1.0043984405818824 C -3.333117364772158 1.0043984405818824 -3.234458477961727 1.0791216122424914 -3.4162646121538556 1.1826000423741208 C -4.622365453374961 1.8700937220157676 -4.319422730328154 2.3352404030575533 -4.543673246038069 2.658433308126205 C -4.745081556427342 2.9487804179554225 -4.622365453374959 2.2708043238640423 -4.622365453374959 2.2708043238640423 C -4.622365453374959 2.2708043238640423 -4.528161606609335 1.6184244598482758 -4.505481402744867 1.5719300419261184 C -4.482801198880402 1.5254356240039615 -3.7826714056571236 1.1009918088260837 -3.7826714056571236 1.1009918088260837 Z" fill="#80caff" transform="matrix(1,0,0,1,0,0)" fill-rule="nonzero"></path></g><g clip-path="url(#SvgjsClipPath100003fcf97b-79ad-4294-80fd-53ee47318ecc)"><path d=" M -3.4689960861387403 1.0357052219876552 C -3.4613407717619893 1.0880321593344708 -3.44690950528324 1.1391406257129877 -3.426065700252428 1.1877435886076702 C -3.1594923041168563 1.050042350859122 -2.6630793420333436 1.012417512662533 -1.8374794210027101 0.7136868274762718 C -1.8374794210027101 0.7136868274762718 -1.7175983434333872 0.5830731534353697 -1.6281330392608737 0.3451335146786876 C -1.9358548052648334 0.42119319835273794 -3.0468202913473093 0.8022206232757787 -3.4689960861387403 1.0357052219876552 Z" fill="#80caff" transform="matrix(1,0,0,1,0,0)" fill-rule="nonzero"></path></g><g clip-path="url(#SvgjsClipPath100003fcf97b-79ad-4294-80fd-53ee47318ecc)"><path d=" M -1.806253640325025 0.6752114816347654 C -2.0078239521704724 0.735962027700301 -2.6127373895270356 0.9243697212315498 -3.0035254021846036 1.050892858504039 C -2.7223313746292614 0.9809892301646292 -2.341141948250044 0.8959384656728793 -1.8374794210027101 0.7136868274762718 C -1.8374794210027101 0.7136868274762713 -1.8254508128817335 0.700605209890159 -1.806253640325025 0.6752114816347654 Z" fill="#ffffff" transform="matrix(1,0,0,1,0,0)" fill-rule="nonzero"></path></g><g clip-path="url(#SvgjsClipPath100003fcf97b-79ad-4294-80fd-53ee47318ecc)"><path d=" M -6.791605451919068 2.588205676874445 C -6.791605451919068 2.285303454191684 -6.647302654831399 2.2115522912681227 -6.647302654831399 1.737698031956943 C -6.647302654831399 1.387045880066671 -6.890912344554199 0.9496419483948126 -7.438355765332762 0.6356831263281235 C -7.985799186111327 0.32172430426143395 -9.827512740634113 -0.31052687882461893 -10.473331545674801 -0.6468419018434253 C -10.897005853935848 -0.8674878851534515 -11.050259231477174 -0.9829949234060569 -11.122714382751337 -0.9829949234060569 C -11.1951695340255 -0.9829949234060569 -11.259565112854967 -0.9033712076961615 -11.259565112854967 -0.6842237378557516 C -11.259565112854967 -0.4650762680153422 -11.153130156148148 0.12436603027653015 -10.530558560068537 0.5555329058856597 C -10.648657621619938 0.7415510779383303 -10.478718094092613 1.1968561705175003 -10.031472573958139 1.37485527048952 C -10.084123047214936 1.4265337350092688 -10.14058055469184 1.5085064718336987 -10.14058055469184 1.587765684267201 C -10.14058055469184 1.7165568419261372 -10.017135445086671 2.0573674053537934 -9.365970591992214 2.202277707902118 C -9.41246500991437 2.240429050831274 -9.459121429292702 2.322725790568053 -9.459121429292702 2.411867091828216 C -9.459121429292702 2.589582689251931 -9.188700498572981 2.942138358252257 -8.381811745730534 2.938128822211932 C -8.538062150211092 3.026095612914827 -8.559810845702554 3.1369856096664517 -8.559810845702554 3.1745699474989975 C -8.559810845702554 3.380311796840945 -8.308708588631674 3.5353471904001914 -8.019859992272071 3.5353471904001914 C -7.7169172692252666 3.5353471904001914 -7.579175531112675 3.4762976596244926 -7.579175531112675 3.4762976596244926 C -7.537419655783632 3.618048933777409 -7.404456960628194 3.726751910870674 -7.176642412882435 3.726751910870674 C -6.923798640157674 3.726751910870674 -6.672169878354225 3.6104753657012383 -6.451685896500374 3.4041665112626776 C -6.422120630748479 3.376504762620838 -6.378785241221731 3.327215819579667 -6.378785241221731 3.2753348532396993 C -6.37898774304195 3.1153584152671217 -6.791605451919068 2.9793986931724517 -6.791605451919068 2.588205676874445 Z M -7.1811784536553285 3.484802736073666 C -7.247356048502719 3.484802736073666 -7.312683135705193 3.4298032417023343 -7.312683135705193 3.3653671625088224 C -7.312683135705193 3.3009310833153114 -7.249138064520642 3.227179920391751 -7.210379216130829 3.0420122559839973 C -7.207139187007334 3.026500616555264 -7.2166162721935585 3.014148005521939 -7.227672871577485 3.0263791154631337 C -7.447711349426855 3.2687737942646216 -7.913303534473123 3.283556427140569 -7.971745559788168 3.283556427140569 C -8.030187585103214 3.283556427140569 -8.290321423355838 3.2511561359056165 -8.290321423355838 3.1823055170313426 C -8.290321423355838 3.120137458224278 -7.724126334025045 2.74935662540429 -7.551918786111273 2.598209266793238 C -7.945501323887857 2.6133969033096216 -8.143224101149155 2.6688824020494772 -8.454469398824916 2.6688824020494772 C -9.052011769925526 2.6688824020494772 -9.175132876618346 2.4306187603804466 -9.175132876618346 2.389429890148013 C -9.175132876618346 2.348241019915579 -9.091054120863644 2.3017871023574656 -9.041481675274166 2.2904470004252335 C -8.99190922968469 2.2791068984929996 -8.634777019547426 2.1998071856954535 -8.037558651359166 2.1750614632647585 C -8.73258539871294 2.032257179646705 -9.014346431364896 2.05611189406844 -9.376622187735707 1.9469634129706936 C -9.738897944106519 1.8378149318729478 -9.890045302717573 1.6347866069219272 -9.857847513302838 1.5659359880476529 C -9.825649723888105 1.4970853691733799 -9.759431628676671 1.4444348959165818 -9.538502142818338 1.456787506949907 C -9.317572656960007 1.4691401179832322 -9.18614897563823 1.521183085779375 -8.722460307702018 1.5289591556757636 C -9.14224658101487 1.3691447191593602 -9.651498158500235 1.304749140329893 -10.03673762128382 1.059154932768953 C -10.273543249847279 0.9081695756140744 -10.300313990480157 0.7568197151828031 -10.300313990480157 0.6170124585039833 C -10.265443177038541 0.6166884555916334 -10.163179757828221 0.613407926104095 -9.99141771391893 0.6464967235277896 C -10.401686401681516 0.38053083285287403 -10.943176268945658 -0.07979630486771316 -10.986673659928583 -0.6039925166851998 C -10.455349384039407 -0.2372617202695817 -8.087981604593562 0.5402642686411896 -7.496392787007374 0.9160671466025943 C -7.022538527696194 1.2171873532674333 -6.808251101541027 1.5731855532114734 -6.95368790882192 2.062227449039036 C -6.947734355307498 1.4969233677172047 -7.396194886363283 1.102125819019309 -8.059347847214672 1.0663639975687296 C -6.910798023299653 1.6197609718617174 -7.183324972949646 2.1456986993330833 -7.1588627530672575 2.4963508512233554 C -7.139706080874591 2.771753326720452 -6.991920252479164 3.078381582895232 -6.697158602969185 3.283515926776526 C -6.910879024027738 3.4362022992212378 -7.115000858807938 3.484802736073666 -7.1811784536553285 3.484802736073666 Z" fill="#80caff" transform="matrix(1,0,0,1,0,0)" fill-rule="nonzero"></path></g><g clip-path="url(#SvgjsClipPath100003fcf97b-79ad-4294-80fd-53ee47318ecc)"><path d=" M -0.40004050036404415 -0.6843857393119264 C -0.40004050036404415 -0.9035332091523357 -0.46443607919351315 -0.9831569248622316 -0.5368912304676741 -0.9831569248622316 C -0.6093463817418368 -0.9831569248622316 -0.7625997592831624 -0.8674878851534515 -1.1862740675442112 -0.6470039032996 C -1.832092872584898 -0.3108508817369683 -3.673846927471727 0.32172430426143483 -4.221249847886248 0.6356831263281235 C -4.768652768300769 0.9496419483948126 -5.012302958387612 1.387045880066671 -5.012302958387612 1.737698031956943 C -5.012302958387612 2.2111877879917294 -4.868000161299942 2.285141452735509 -4.868000161299942 2.588205676874445 C -4.868000161299942 2.9793986931724517 -5.280617870177062 3.1153584152671217 -5.280617870177062 3.2751728517835232 C -5.280617870177062 3.32705381812349 -5.237444482106489 3.376423761892749 -5.20771721489842 3.4040045098065015 C -4.987071231588392 3.610313364245062 -4.735442469784944 3.726589909414498 -4.482760698516359 3.726589909414498 C -4.254946150770599 3.726589909414498 -4.1219834556151635 3.618089434141451 -4.0802275802861185 3.4761356581683165 C -4.0802275802861185 3.4761356581683165 -3.9425263425375707 3.535185188944017 -3.6395431191267216 3.535185188944017 C -3.350897024587341 3.535185188944017 -3.099592265696238 3.380149795384769 -3.099592265696238 3.1744079460428214 C -3.099592265696238 3.1368236082102774 -3.121340961187702 3.025933611458652 -3.2775913656682585 2.937966820755756 C -2.4707431131898563 2.942016857160125 -2.200281682106091 2.589420687795755 -2.200281682106091 2.411705090372041 C -2.200281682106091 2.3226042894759216 -2.2471001029405944 2.240267049375099 -2.293432519406579 2.202115706445942 C -1.6422676663121187 2.057205403897618 -1.5188225567069509 1.7163948404699607 -1.5188225567069509 1.587603682811025 C -1.5188225567069509 1.5082229692853917 -1.5751585630917244 1.4263717335530937 -1.6279305374406547 1.374693269033344 C -1.180725517670222 1.1966941690613242 -1.010745489778854 0.7413890764821551 -1.1288445513302552 0.5553709044294846 C -0.5064754570708647 0.12420402882035542 -0.40004050036404415 -0.4652382694715169 -0.40004050036404415 -0.6843857393119264 Z M -1.6681068985719953 0.6465777242558763 C -1.4963448546627038 0.6134889268321815 -1.394081435452387 0.6167694563197201 -1.3592106220107674 0.6170934592320694 C -1.3592106220107674 0.7569007159108894 -1.3859813626436477 0.9082505763421611 -1.6227869912071053 1.0592359334970387 C -2.0080264539906896 1.3049516421501102 -2.5172780314760566 1.3693472209795778 -2.9370643047889082 1.5290401564038494 C -2.4734566375807834 1.5212640865074614 -2.34195195553092 1.4693831201674936 -2.121022469672589 1.4568685076779933 C -1.9000929838142575 1.4443538951884929 -1.833874888602823 1.4971258695374223 -1.8016770991880886 1.56601698877574 C -1.7694793097733559 1.6349081080140568 -1.9206671687484516 1.8379364329650782 -2.282902424755221 1.9470444136987795 C -2.645137680761989 2.056152394432482 -2.9268582130499006 2.0323381803747926 -3.621965961131761 2.1751424639928443 C -3.024747592943502 2.1998881864235393 -2.6675343820781503 2.2791878992210863 -2.61804293721676 2.2905280011533193 C -2.56855149235537 2.3018681030855532 -2.484391735872581 2.348362521007709 -2.484391735872581 2.3895108908760987 C -2.484391735872581 2.4306592607444886 -2.607512842565402 2.668963402777564 -3.2050552136660126 2.668963402777564 C -3.5163410117058174 2.668963402777564 -3.7140232886030713 2.6134779040377083 -4.107605826379655 2.5982902675213237 C -3.9353982784658816 2.7494376261323774 -3.3692031891350878 3.1202184589523645 -3.3692031891350878 3.1823865177594284 C -3.3692031891350878 3.251237136633703 -3.6293370273877112 3.2836374278686558 -3.6877790527027567 3.2836374278686558 C -3.7462210780178014 3.2836374278686558 -4.211813263064068 3.2688547949927083 -4.431851740913439 3.0264601161912204 C -4.442908340297367 3.014310006978114 -4.452385425483591 3.0264601161912204 -4.449145396360095 3.042093256712085 C -4.410386547970283 3.2272609211198384 -4.34684147678573 3.301052584407442 -4.34684147678573 3.365448163236909 C -4.34684147678573 3.429843742066377 -4.412168563988205 3.484883736801753 -4.478346158835595 3.484883736801753 C -4.544523753682983 3.484883736801753 -4.748645588463184 3.4362832999493245 -4.962123007337477 3.283637427868655 C -4.667523359283673 3.0785030839873615 -4.519737530888245 2.7716723259923617 -4.500418857239404 2.496472352315486 C -4.476118638813191 2.145820200425213 -4.7484835870070095 1.619882472953847 -3.5999337630919888 1.0664854986608592 C -4.263046223579333 1.1022473201114387 -4.71150675463512 1.4970448688093343 -4.705593701484741 2.0623489501311667 C -4.851071009129677 1.5733475546676463 -4.63698608479473 1.2173493547236067 -4.162888823299288 0.9161886476947236 C -3.5713000057130984 0.540385769733319 -1.2039322262672556 -0.23714021917745198 -0.6726079503780795 -0.6038710155930701 C -0.7163888439093125 -0.07971530413962657 -1.2578382108094122 0.38061183358096007 -1.6681068985719953 0.6465777242558763 Z" fill="#80caff" transform="matrix(1,0,0,1,0,0)" fill-rule="nonzero"></path></g></g></g><defs><linearGradient id="gradient-aa769484-0820-4f59-9348-72ebdfdd04a9" y1="0" x1="0" y2="1" x2="1"><stop stop-color="#51a8db" offset="0"></stop><stop stop-color="#3361e1" offset="1"></stop></linearGradient><clipPath id="SvgjsClipPath1007"><path d=" M -11.259565112854967 -0.983156924862232 h 10.859565112854966 v 4.709787334640774 h -10.859565112854966 Z"></path></clipPath><clipPath id="SvgjsClipPath100003fcf97b-79ad-4294-80fd-53ee47318ecc"><path d=" M -11.259565112854967 -0.983156924862232 L -0.40000000000000036 -0.983156924862232 L -0.40000000000000036 3.726630409778542 L -11.259565112854967 3.726630409778542 Z"></path></clipPath></defs></svg>